# xmcd
#
# Track frame offsets:
#	150
#	17093
#	32338
#	47419
#	67227
#	86225
#	104710
#	122061
#	138898
#	156789
#	178973
#
# Disc length: 2625 seconds
#
# Revision: 1
# Processed by: cddbd v1.4PL0 Copyright (c) Steve Scherf et al.
# Submitted via: EasyCDDAExtractor 6.0.0.1
#
DISCID=960a3f0b
DTITLE=Jo Dee Messina - Burn
DYEAR=2000
DGENRE=Country
TTITLE0=Downtime
TTITLE1=That's The Way
TTITLE2=Dare To Dream
TTITLE3=Burn
TTITLE4=If Not You
TTITLE5=Closer
TTITLE6=These Are The Days
TTITLE7=Saturday Night
TTITLE8=Angelene
TTITLE9=Nothing I Can Do
TTITLE10=Bring On The Rain (with Tim McGraw)
EXTD=
EXTT0=
EXTT1=
EXTT2=
EXTT3=
EXTT4=
EXTT5=
EXTT6=
EXTT7=
EXTT8=
EXTT9=
EXTT10=
PLAYORDER=
